<svg width="320" height="192" viewBox="0 0 320 192" fill="none" xmlns="http://www.w3.org/2000/svg">
  <defs>
    <linearGradient id="bg" x1="0" y1="0" x2="320" y2="192" gradientUnits="userSpaceOnUse">
      <stop stop-color="#1a1a2e"/>
      <stop offset="1" stop-color="#16213e"/>
    </linearGradient>
    <linearGradient id="icon-grad" x1="100" y1="50" x2="160" y2="110" gradientUnits="userSpaceOnUse">
      <stop stop-color="#ef4444"/>
      <stop offset="0.5" stop-color="#f97316"/>
      <stop offset="1" stop-color="#eab308"/>
    </linearGradient>
    <linearGradient id="text-grad" x1="80" y1="140" x2="260" y2="140" gradientUnits="userSpaceOnUse">
      <stop stop-color="#ef4444"/>
      <stop offset="0.5" stop-color="#f97316"/>
      <stop offset="1" stop-color="#eab308"/>
    </linearGradient>
  </defs>
  <rect width="320" height="192" rx="16" fill="url(#bg)"/>
  <!-- Play icon -->
  <rect x="110" y="40" width="60" height="60" rx="14" fill="url(#icon-grad)"/>
  <path d="M132 58l16 12-16 12V58z" fill="#fff"/>
  <path d="M142 58l16 12-16 12V58z" fill="#fff" opacity="0.6"/>
  <!-- Checkmark badge -->
  <circle cx="180" cy="48" r="10" fill="#fbbf24"/>
  <path d="M176 47.5l2.5 2.5 4-4.5" stroke="#1a1a2e" stroke-width="2" stroke-linecap="round" stroke-linejoin="round" fill="none"/>
  <!-- Analytics bars -->
  <rect x="185" y="78" width="6" height="22" rx="3" fill="#ef4444" opacity="0.7"/>
  <rect x="195" y="68" width="6" height="32" rx="3" fill="#f97316" opacity="0.7"/>
  <rect x="205" y="58" width="6" height="42" rx="3" fill="#eab308" opacity="0.7"/>
  <!-- Project name -->
  <text x="160" y="140" text-anchor="middle" font-family="system-ui, -apple-system, sans-serif" font-size="26" font-weight="800" fill="url(#text-grad)">YTCombinator</text>
  <text x="160" y="162" text-anchor="middle" font-family="system-ui, -apple-system, sans-serif" font-size="12" fill="#9ca3af">YouTube Automation Suite</text>
</svg>
